<svg width="240" height="240" viewBox="0 0 240 240" fill="none" xmlns="http://www.w3.org/2000/svg">
<g clip-path="url(#clip0_24_241)">
<path d="M119.998 209.397C169.429 209.397 209.499 169.327 209.499 119.896C209.499 70.4643 169.429 30.3938 119.998 30.3938C70.5665 30.3938 30.496 70.4643 30.496 119.896C30.496 169.327 70.5665 209.397 119.998 209.397Z" fill="#F3F5FF"/>
<path d="M16.3482 186.72H223.652" stroke="black" stroke-linecap="round" stroke-linejoin="round"/>
<path d="M140.576 88.1317C143.139 88.1317 145.219 86.0515 145.219 83.4885C145.219 80.9255 143.139 78.8453 140.576 78.8453C138.013 78.8453 135.933 80.9255 135.933 83.4885C135.933 86.0515 138.013 88.1317 140.576 88.1317Z" fill="#002EFF"/>
<path d="M148.028 81.4779H189.529" stroke="black" stroke-linecap="round" stroke-linejoin="round"/>
<path d="M148.028 84.7235H154.185" stroke="black" stroke-linecap="round" stroke-linejoin="round"/>
<path d="M138.714 83.9759L140.033 84.8721L142.438 82.1001" stroke="white" stroke-linecap="round" stroke-linejoin="round"/>
<path d="M140.576 103.983C143.139 103.983 145.219 101.903 145.219 99.3402C145.219 96.7772 143.139 94.697 140.576 94.697C138.013 94.697 135.933 96.7772 135.933 99.3402C135.933 101.903 138.013 103.983 140.576 103.983Z" fill="#002EFF"/>
<path d="M148.028 97.3297H189.529" stroke="black" stroke-linecap="round" stroke-linejoin="round"/>
<path d="M148.028 100.575H154.185" stroke="black" stroke-linecap="round" stroke-linejoin="round"/>
<path d="M138.714 99.8277L140.033 100.724L142.438 97.9519" stroke="white" stroke-linecap="round" stroke-linejoin="round"/>
<path d="M140.576 119.835C143.139 119.835 145.219 117.755 145.219 115.192C145.219 112.629 143.139 110.549 140.576 110.549C138.013 110.549 135.933 112.629 135.933 115.192C135.933 117.755 138.013 119.835 140.576 119.835Z" fill="#002EFF"/>
<path d="M148.028 113.182H189.529" stroke="black" stroke-linecap="round" stroke-linejoin="round"/>
<path d="M148.028 116.432H154.185" stroke="black" stroke-linecap="round" stroke-linejoin="round"/>
<path d="M138.714 115.68L140.033 116.576L142.438 113.804" stroke="white" stroke-linecap="round" stroke-linejoin="round"/>
<path d="M88.3266 119.352L105.822 116.214C110.943 115.294 116.093 117.704 118.665 122.231L153.103 182.797H97.9333L88.3313 119.357L88.3266 119.352Z" fill="#42E8B4"/>
<path d="M97.2601 182.797H152.43L128.889 141.393H90.9918L97.2601 182.797Z" fill="white"/>
<path d="M152.43 183.465H97.2601C96.9304 183.465 96.6472 183.224 96.6008 182.894L90.3325 141.491C90.3046 141.296 90.3603 141.101 90.4857 140.952C90.6111 140.804 90.7968 140.72 90.9918 140.72H128.889C129.131 140.72 129.354 140.85 129.47 141.059L153.011 182.462C153.127 182.671 153.127 182.922 153.011 183.131C152.89 183.335 152.672 183.465 152.43 183.465Z" fill="white" stroke="black" stroke-linecap="round" stroke-linejoin="round"/>
<path d="M49.1708 137.827L67.0331 113.976C71.393 108.153 79.6114 107.099 85.2575 111.645L93.6013 118.363L97.2369 114.44H97.3994C104.304 114.44 110.252 119.389 111.603 126.271L114.704 186.441H42.2618L49.1708 137.827Z" fill="#42E8B4"/>
<path d="M119.984 161.085L109.486 155.007H124.678C125.356 155.007 125.969 155.328 126.354 155.88C126.744 156.437 126.832 157.12 126.6 157.756C125.876 159.748 123.968 161.085 121.85 161.085H119.979H119.984Z" fill="white"/>
<path d="M124.683 155.355C125.244 155.355 125.755 155.62 126.076 156.08C126.396 156.539 126.475 157.106 126.28 157.635C125.607 159.488 123.828 160.732 121.855 160.732H120.081L110.786 155.351H124.683M124.683 154.654H108.195L119.896 161.429H121.86C124.13 161.429 126.164 160.008 126.939 157.872C127.506 156.307 126.35 154.654 124.687 154.654H124.683Z" fill="black"/>
<path d="M44.1283 186.892C38.2036 186.892 32.8408 183.502 30.1338 178.047C27.4268 172.591 28.0212 166.42 31.7264 161.54L49.454 138.18C67.9663 138.236 75.2375 146.984 76.3426 148.479L65.2083 160.681L106.56 155.058C107.104 154.984 107.596 154.947 108.069 154.947C110.386 154.947 111.984 155.82 114.886 157.403C115.61 157.798 116.413 158.239 117.323 158.712L133.263 167.878C133.347 167.924 133.403 168.003 133.421 168.096C133.44 168.189 133.416 168.282 133.356 168.356C132.567 169.355 131.387 169.926 130.124 169.926C130.013 169.926 129.902 169.926 129.79 169.912C124.72 169.494 116.107 166.053 114.175 164.99L111.733 163.643L126.953 177.893C127.195 178.116 127.311 178.437 127.278 178.762C127.246 179.087 127.065 179.374 126.786 179.546C125.746 180.187 124.557 180.521 123.336 180.521C122.031 180.521 120.768 180.141 119.687 179.416L119.524 179.309L117.504 180.247C116.557 180.688 115.55 180.911 114.505 180.911C113.038 180.911 111.621 180.466 110.419 179.625L104.485 175.47C104.044 175.158 103.524 174.996 102.985 174.996C102.804 174.996 102.628 175.015 102.451 175.052L47.5457 186.539C46.4081 186.776 45.2612 186.896 44.1376 186.896H44.1283V186.892Z" fill="white"/>
<path d="M49.6258 138.524C59.9197 138.584 66.5734 141.365 70.3576 143.706C73.501 145.651 75.2329 147.611 75.8876 148.451L65.5983 159.729L64.3029 161.145L66.2066 160.885L106.607 155.393C107.131 155.323 107.61 155.286 108.065 155.286C110.293 155.286 111.863 156.145 114.714 157.7C115.429 158.09 116.237 158.531 117.142 159.01L133.054 168.157C132.33 169.053 131.262 169.568 130.115 169.568C130.013 169.568 129.911 169.568 129.809 169.554C124.785 169.141 116.246 165.728 114.333 164.674L109.444 161.977L113.52 165.793L126.702 178.135C126.86 178.283 126.944 178.497 126.921 178.715C126.897 178.933 126.777 179.124 126.591 179.24C125.607 179.843 124.478 180.164 123.322 180.164C122.087 180.164 120.889 179.802 119.863 179.114L119.538 178.896L119.185 179.059L117.342 179.913C116.441 180.331 115.485 180.545 114.491 180.545C113.093 180.545 111.751 180.122 110.605 179.319L104.671 175.163C104.169 174.815 103.584 174.629 102.971 174.629C102.767 174.629 102.563 174.652 102.363 174.694L47.4575 186.181C46.3431 186.414 45.2195 186.534 44.119 186.534C38.329 186.534 33.0869 183.219 30.4356 177.879C27.789 172.549 28.3694 166.513 31.9957 161.735L49.6165 138.515M49.2729 137.818L31.4385 161.317C23.1505 172.238 31.3967 187.231 44.1144 187.231C45.2427 187.231 46.4035 187.115 47.5921 186.864L102.498 175.377C102.651 175.344 102.809 175.33 102.962 175.33C103.422 175.33 103.877 175.47 104.262 175.739L110.196 179.895C111.473 180.786 112.973 181.246 114.482 181.246C115.55 181.246 116.622 181.018 117.625 180.549L119.468 179.695C120.629 180.47 121.971 180.86 123.313 180.86C124.571 180.86 125.829 180.517 126.944 179.834C127.729 179.351 127.835 178.255 127.167 177.629L113.985 165.287C115.786 166.281 124.437 169.819 129.739 170.251C129.86 170.26 129.98 170.265 130.106 170.265C131.466 170.265 132.757 169.642 133.611 168.565C133.867 168.245 133.774 167.771 133.421 167.567L117.472 158.397C112.935 156.019 111.069 154.589 108.06 154.589C107.577 154.589 107.066 154.626 106.505 154.701L66.1044 160.194L76.7791 148.493C76.7791 148.493 70.0047 137.818 49.2729 137.818Z" fill="black"/>
<path d="M163.332 186.441H84.236V183.526C84.236 181.691 85.7265 180.206 87.5559 180.206H163.332V186.441Z" fill="black"/>
<path d="M132.641 186.441H204.559L220.364 138.673C221.892 134.057 218.456 129.303 213.595 129.303H156.697C153.623 129.303 150.893 131.276 149.928 134.192L132.641 186.441Z" fill="black"/>
<path d="M87.138 112.165L99.512 112.829L110.586 116.469L110.168 118.215C108.274 126.131 99.2845 128.597 94.3117 122.561L87.138 112.165Z" fill="white"/>
<path d="M47.7036 163.337L68.5607 160.203" stroke="black" stroke-linecap="round" stroke-linejoin="round"/>
<path d="M75.8597 148.985L87.7184 136.574" stroke="black" stroke-linecap="round" stroke-linejoin="round"/>
<path d="M105.437 114.625L110.586 116.469" stroke="black" stroke-linecap="round" stroke-linejoin="round"/>
<path d="M108.993 162.028L113.372 164.748" stroke="black" stroke-linecap="round" stroke-linejoin="round"/>
<path d="M108.743 169.782L119.714 179.463" stroke="black" stroke-linecap="round" stroke-linejoin="round"/>
<path d="M122.087 77.3734C122.087 77.3734 126.136 79.0357 125.17 82.1234C124.441 84.4542 120.936 83.9853 120.936 83.9853L118.27 78.251L122.092 77.3734H122.087Z" fill="black"/>
<path d="M89.4642 86.9383C89.6964 85.5454 90.0075 84.6957 90.0075 84.6957L97.9194 71.0494L111.12 68.6907L119.162 76.5283C119.162 76.5283 121.353 79.6346 122.454 84.4589C124.441 83.6277 126.953 83.5024 128.058 87.2587C129.08 90.7318 125.439 93.462 122.7 93.8474C122.454 95.2217 122.069 96.6379 121.511 98.0866C118.623 105.585 112.021 108.534 105.432 107.661L105.446 114.626L110.591 116.469L109.161 120.755C108.445 122.89 106.723 124.539 104.555 125.156C100.928 126.192 97.0372 125.667 93.8102 123.717C90.5182 121.725 87.983 118.698 86.5994 115.108L85.2668 111.645L90.4903 112.341L91.549 98.4998C91.0475 97.6548 90.6482 96.8097 90.3325 95.9739C87.7091 96.6425 82.3834 93.8659 83.3677 89.7474C84.3799 85.5222 87.3701 85.9865 89.4688 86.929V86.9383H89.4642Z" fill="white" stroke="black" stroke-miterlimit="10"/>
<path d="M90.0539 89.5571C90.0539 89.5571 96.2247 84.9882 95.8811 78.4646C95.8811 78.4646 103.774 76.6073 105.762 73.6218C105.762 73.6218 111.538 78.7385 114.435 76.8209C116.051 75.753 114.203 73.3618 114.203 73.3618C114.203 73.3618 118.739 79.1564 123.002 78.525C126.981 77.9353 126.642 74.5551 123.099 72.6049C120.657 71.263 115.916 70.6548 115.916 70.6548C115.916 70.6548 119.988 67.0006 117.175 65.1991C115.299 64.0011 110.312 67.9618 107.252 68.0778C104.192 68.1939 99.8324 68.6397 97.7801 69.819C97.7801 69.819 100.181 65.7284 96.8701 64.823C94.7528 64.2426 93.1834 70.028 91.7672 72.8231C90.351 75.6137 85.4757 85.1647 88.2616 89.8589L90.0446 89.5618H90.0539V89.5571Z" fill="black"/>
<path d="M122.983 92.4498L122.542 84.886L119.25 84.7003L117.778 91.3075L122.983 92.4498Z" fill="white"/>
<path d="M88.7259 92.6355L85.9911 88.842" stroke="black" stroke-miterlimit="10" stroke-linecap="round"/>
<path d="M87.7416 91.2704L86.3394 92.278" stroke="black" stroke-miterlimit="10" stroke-linecap="round"/>
<path d="M123.025 90.8989L124.841 86.5901" stroke="black" stroke-miterlimit="10" stroke-linecap="round"/>
<path d="M123.68 89.3435L125.268 90.0168" stroke="black" stroke-miterlimit="10" stroke-linecap="round"/>
</g>
<defs>
<clipPath id="clip0_24_241">
<rect width="208" height="208" fill="white" transform="translate(16 16)"/>
</clipPath>
</defs>
</svg>
